<svg width="32" height="32" viewBox="0 0 32 32" fill="none" xmlns="http://www.w3.org/2000/svg">
<path d="M6 12V27C6 28.654 7.346 30 9 30H23C24.654 30 26 28.654 26 27V12H6ZM12 25C12 25.552 11.552 26 11 26C10.448 26 10 25.552 10 25V16C10 15.448 10.448 15 11 15C11.552 15 12 15.448 12 16V25ZM17 25C17 25.552 16.552 26 16 26C15.448 26 15 25.552 15 25V16C15 15.448 15.448 15 16 15C16.552 15 17 15.448 17 16V25ZM22 25C22 25.552 21.552 26 21 26C20.448 26 20 25.552 20 25V16C20 15.448 20.448 15 21 15C21.552 15 22 15.448 22 16V25Z" fill="black"/>
<path d="M27 6H21V5C21 3.346 19.654 2 18 2H14C12.346 2 11 3.346 11 5V6H5C3.897 6 3 6.897 3 8V9C3 9.552 3.448 10 4 10H28C28.552 10 29 9.552 29 9V8C29 6.897 28.103 6 27 6ZM13 5C13 4.449 13.449 4 14 4H18C18.551 4 19 4.449 19 5V6H13V5Z" fill="black"/>
</svg>
